<mxfile host="app.diagrams.net" modified="2022-01-13T03:03:53.651Z" agent="5.0 (Windows NT 10.0; Win64; x64) AppleWebKit/537.36 (KHTML, like Gecko) Chrome/97.0.4692.71 Safari/537.36" etag="RJqy5M2nw-vIendSgV8V" version="16.2.4" type="github">
  <diagram id="0jRuPJU61brVP93ckLQP" name="第 1 页">
    <mxGraphModel dx="2048" dy="634" grid="1" gridSize="10" guides="1" tooltips="1" connect="1" arrows="1" fold="1" page="1" pageScale="1" pageWidth="827" pageHeight="1169" math="0" shadow="0">
      <root>
        <mxCell id="0" />
        <mxCell id="1" parent="0" />
        <mxCell id="IyiCqBUq8RJbGP_hd77M-1" value="目标实现，就是一个不断闯关的过程" style="text;html=1;align=center;verticalAlign=middle;resizable=0;points=[];autosize=1;strokeColor=none;fillColor=none;fontSize=20;" vertex="1" parent="1">
          <mxGeometry x="220" y="10" width="340" height="30" as="geometry" />
        </mxCell>
        <mxCell id="IyiCqBUq8RJbGP_hd77M-5" value="最终目标" style="rounded=1;whiteSpace=wrap;html=1;fontSize=12;" vertex="1" parent="1">
          <mxGeometry x="780" y="210" width="120" height="60" as="geometry" />
        </mxCell>
        <mxCell id="IyiCqBUq8RJbGP_hd77M-6" value="" style="rounded=1;whiteSpace=wrap;html=1;fontSize=12;" vertex="1" parent="1">
          <mxGeometry x="-70" y="210" width="120" height="60" as="geometry" />
        </mxCell>
        <mxCell id="IyiCqBUq8RJbGP_hd77M-7" value="" style="rounded=1;whiteSpace=wrap;html=1;fontSize=12;" vertex="1" parent="1">
          <mxGeometry x="142" y="210" width="120" height="60" as="geometry" />
        </mxCell>
        <mxCell id="IyiCqBUq8RJbGP_hd77M-8" value="" style="rounded=1;whiteSpace=wrap;html=1;fontSize=12;" vertex="1" parent="1">
          <mxGeometry x="355" y="210" width="120" height="60" as="geometry" />
        </mxCell>
        <mxCell id="IyiCqBUq8RJbGP_hd77M-9" value="" style="rounded=1;whiteSpace=wrap;html=1;fontSize=12;" vertex="1" parent="1">
          <mxGeometry x="567" y="210" width="120" height="60" as="geometry" />
        </mxCell>
      </root>
    </mxGraphModel>
  </diagram>
</mxfile>
